<?xml version="1.0" encoding="utf-8"?>

<!DOCTYPE svg PUBLIC "-//W3C//DTD SVG 1.1//EN" "http://www.w3.org/Graphics/SVG/1.1/DTD/svg11.dtd">
<svg version="1.1" id="Layer_1" xmlns="http://www.w3.org/2000/svg" xmlns:xlink="http://www.w3.org/1999/xlink" x="0px" y="0px"
	 viewBox="0 0 1628.989 1654.119" enable-background="new 0 0 1628.989 1654.119" xml:space="preserve">
<g>
	<g>
		<polygon fill="none" stroke="#000000" stroke-width="3" stroke-miterlimit="10" points="813.332,830.252 575.534,936.639 
			540.878,1578.813 540.878,1578.813 927.112,1064.603 		"/>
	</g>
	<g>
		<polygon fill="none" stroke="#000000" stroke-width="3" stroke-miterlimit="10" points="812.311,829.662 552.467,848.301 
			300.264,1439.895 300.264,1439.895 839.076,1088.795 		"/>
	</g>
	<g>
		<polygon fill="none" stroke="#000000" stroke-width="3" stroke-miterlimit="10" points="811.552,828.758 561.004,757.402 
			121.674,1227.059 121.674,1227.059 748.075,1081.417 		"/>
	</g>
	<g>
		<polygon fill="none" stroke="#000000" stroke-width="3" stroke-miterlimit="10" points="811.148,827.649 600.116,674.904 
			26.648,965.978 26.648,965.978 665.085,1043.361 		"/>
	</g>
	<g>
		<polygon fill="none" stroke="#000000" stroke-width="3" stroke-miterlimit="10" points="811.148,826.469 665.085,610.758 
			26.648,688.141 26.648,688.141 600.116,979.215 		"/>
	</g>
	<g>
		<polygon fill="none" stroke="#000000" stroke-width="3" stroke-miterlimit="10" points="811.552,825.361 748.075,572.701 
			121.674,427.059 121.674,427.059 561.004,896.717 		"/>
	</g>
	<g>
		<polygon fill="none" stroke="#000000" stroke-width="3" stroke-miterlimit="10" points="812.311,824.457 839.076,565.324 
			300.264,214.224 300.264,214.224 552.467,805.817 		"/>
	</g>
	<g>
		<polygon fill="none" stroke="#000000" stroke-width="3" stroke-miterlimit="10" points="813.332,823.867 927.112,589.516 
			540.878,75.305 540.878,75.305 575.534,717.48 		"/>
	</g>
	<g>
		<polygon fill="none" stroke="#000000" stroke-width="3" stroke-miterlimit="10" points="814.495,823.662 1001.565,642.359 
			814.495,27.059 814.495,27.059 627.424,642.359 		"/>
	</g>
	<g>
		<polygon fill="none" stroke="#000000" stroke-width="3" stroke-miterlimit="10" points="815.657,823.867 1053.455,717.48 
			1088.111,75.305 1088.111,75.305 701.877,589.516 		"/>
	</g>
	<g>
		<polygon fill="none" stroke="#000000" stroke-width="3" stroke-miterlimit="10" points="816.678,824.457 1076.522,805.817 
			1328.725,214.224 1328.725,214.224 789.913,565.324 		"/>
	</g>
	<g>
		<polygon fill="none" stroke="#000000" stroke-width="3" stroke-miterlimit="10" points="817.437,825.361 1067.985,896.717 
			1507.315,427.059 1507.315,427.059 880.914,572.701 		"/>
	</g>
	<g>
		<polygon fill="none" stroke="#000000" stroke-width="3" stroke-miterlimit="10" points="817.841,826.469 1028.873,979.215 
			1602.341,688.141 1602.341,688.141 963.904,610.758 		"/>
	</g>
	<g>
		<polygon fill="none" stroke="#000000" stroke-width="3" stroke-miterlimit="10" points="817.841,827.649 963.904,1043.361 
			1602.341,965.978 1602.341,965.978 1028.873,674.904 		"/>
	</g>
	<g>
		<polygon fill="none" stroke="#000000" stroke-width="3" stroke-miterlimit="10" points="817.437,828.758 880.914,1081.417 
			1507.315,1227.059 1507.315,1227.059 1067.985,757.402 		"/>
	</g>
	<g>
		<polygon fill="none" stroke="#000000" stroke-width="3" stroke-miterlimit="10" points="816.678,829.662 789.913,1088.795 
			1328.725,1439.895 1328.725,1439.895 1076.522,848.301 		"/>
	</g>
	<g>
		<polygon fill="none" stroke="#000000" stroke-width="3" stroke-miterlimit="10" points="815.657,830.252 701.877,1064.603 
			1088.111,1578.813 1088.111,1578.813 1053.455,936.639 		"/>
	</g>
	<g>
		<polygon fill="none" stroke="#000000" stroke-width="3" stroke-miterlimit="10" points="814.495,830.457 627.424,1011.76 
			814.495,1627.059 814.495,1627.059 1001.565,1011.76 		"/>
	</g>
</g>
</svg>
